<svg width="191" height="24" xmlns="http://www.w3.org/2000/svg">
    <g fill="none" fill-rule="evenodd">
        <path d="m17.546 5.317-5.854 11.692h11.693L17.546 5.317zm0 3.244 3.498 7.005h-6.995l3.497-7.005z" fill="#49A841"/>
        <path d="M41.417 16.085a4.351 4.351 0 0 1-3.626-4.299 4.363 4.363 0 0 1 3.626-4.298v8.597zm1.5 0V7.503a4.372 4.372 0 0 1 3.121 2.27l1.347-.685a6.004 6.004 0 0 0-2.143-2.271 5.773 5.773 0 0 0-3.075-.885c-1.576 0-3.044.61-4.146 1.723a5.747 5.747 0 0 0-1.713 4.131c0 1.57.595 3.034 1.713 4.131 1.102 1.113 2.57 1.708 4.146 1.708 1.087 0 2.157-.29 3.075-.87a5.999 5.999 0 0 0 2.143-2.27l-1.347-.687a4.393 4.393 0 0 1-3.121 2.287z" fill="#8E52A0"/>
        <path d="M1.519 13.51h7.408v-2.817H1.52v2.818zm7.408-7.27v2.911H1.52V6.24H0v11.692h1.519v-2.896h7.408v2.896h1.535V6.24H8.927z" fill="#044DA1"/>
        <path d="M70.472 15.573h-7.093l7.093-6.788v6.788zm-8.637-6.788 3.258 3.14-3.258 3.125V8.785zm4.319 2.124-5.846-5.592v11.692H72V5.317l-5.846 5.592z" fill="#EC1A3A"/>
        <path d="m33.552 14.156-3.111-2.87V7.205h3.111v6.951zm-4.636 1.581h-3.392V8.785l3.392 3.146v3.806zm0-10.037v4.174L24 5.317v11.91h6.44v-3.884l4.637 4.282V5.7h-6.161z" fill="#00A0E3"/>
        <path d="M53.846 16.126a4.348 4.348 0 1 1 0-8.697 4.348 4.348 0 0 1 0 8.697m0-10.194a5.846 5.846 0 1 0 0 11.692 5.846 5.846 0 0 0 0-11.692" fill="#F05A22"/>
        <path d="M87.116 18.24c1.211 0 2.286-.2 3.224-.598.938-.399 1.724-.953 2.36-1.662a7.128 7.128 0 0 0 1.44-2.503c.324-.96.486-1.994.486-3.102 0-1.122-.155-2.163-.465-3.123a7.036 7.036 0 0 0-1.395-2.504c-.62-.709-1.4-1.262-2.338-1.661-.938-.399-2.034-.598-3.29-.598h-4.187c-.709 0-1.222.17-1.54.51-.317.339-.476.841-.476 1.506v11.697c0 .68.16 1.189.477 1.528.317.34.83.51 1.54.51h4.164zm0-1.55h-4.275V4.04h4.253c.916 0 1.724.154 2.426.465.702.31 1.289.745 1.761 1.307.473.56.831 1.23 1.075 2.005.243.775.365 1.628.365 2.558 0 .93-.118 1.78-.354 2.548a5.62 5.62 0 0 1-1.064 1.994 4.806 4.806 0 0 1-1.76 1.307c-.702.31-1.511.465-2.427.465zm14.958 1.772c1.019 0 1.853-.119 2.503-.355a6.095 6.095 0 0 0 1.684-.908c.207-.163.317-.344.332-.543a.708.708 0 0 0-.144-.51.834.834 0 0 0-.443-.288c-.184-.051-.373-.003-.565.144a8.36 8.36 0 0 1-.631.41 4.328 4.328 0 0 1-.72.333c-.266.096-.561.17-.886.221a7.269 7.269 0 0 1-1.13.078 4.475 4.475 0 0 1-1.562-.266 3.88 3.88 0 0 1-1.263-.753 3.842 3.842 0 0 1-.875-1.152 3.65 3.65 0 0 1-.376-1.44h8.108c.37 0 .631-.096.786-.288.155-.192.233-.458.233-.798 0-.783-.14-1.499-.421-2.149a4.93 4.93 0 0 0-1.152-1.661 5.175 5.175 0 0 0-1.717-1.064 5.816 5.816 0 0 0-2.093-.376c-.754 0-1.459.144-2.116.432a5.543 5.543 0 0 0-2.924 3.001 5.838 5.838 0 0 0-.432 2.26c0 .812.132 1.562.398 2.249a5.2 5.2 0 0 0 1.152 1.794 5.31 5.31 0 0 0 1.828 1.197c.716.288 1.525.432 2.426.432zm3.478-6.359h-7.577a4.061 4.061 0 0 1 1.186-2.525 3.857 3.857 0 0 1 1.152-.776 3.504 3.504 0 0 1 1.429-.288c.59 0 1.122.096 1.595.288.472.192.871.45 1.196.776.325.325.576.705.753 1.14.177.436.266.898.266 1.385zm7.647 6.359c.664 0 1.237-.17 1.717-.51.48-.34.845-.916 1.096-1.728l2.238-7.82c.088-.28.066-.514-.067-.698a.877.877 0 0 0-.51-.355.875.875 0 0 0-.62.078c-.206.103-.354.295-.443.576l-2.148 8.064c-.09.325-.248.569-.477.731a1.325 1.325 0 0 1-.786.244c-.296 0-.558-.082-.787-.244-.229-.162-.387-.406-.476-.731l-2.149-8.064c-.089-.28-.236-.473-.443-.576a.875.875 0 0 0-.62-.078.877.877 0 0 0-.51.355c-.133.184-.155.417-.066.698l2.237 7.82c.251.812.617 1.388 1.097 1.728.48.34 1.052.51 1.717.51zm11.989 0c1.019 0 1.853-.119 2.503-.355a6.095 6.095 0 0 0 1.684-.908c.207-.163.317-.344.332-.543a.708.708 0 0 0-.144-.51.834.834 0 0 0-.443-.288c-.185-.051-.373-.003-.565.144a8.36 8.36 0 0 1-.631.41 4.328 4.328 0 0 1-.72.333c-.266.096-.562.17-.886.221a7.269 7.269 0 0 1-1.13.078 4.475 4.475 0 0 1-1.562-.266 3.88 3.88 0 0 1-1.263-.753 3.842 3.842 0 0 1-.875-1.152 3.65 3.65 0 0 1-.377-1.44h8.109c.369 0 .631-.096.786-.288.155-.192.233-.458.233-.798 0-.783-.14-1.499-.421-2.149a4.93 4.93 0 0 0-1.152-1.661 5.175 5.175 0 0 0-1.717-1.064 5.816 5.816 0 0 0-2.094-.376c-.753 0-1.458.144-2.115.432a5.543 5.543 0 0 0-2.925 3.001 5.838 5.838 0 0 0-.432 2.26c0 .812.133 1.562.4 2.249a5.2 5.2 0 0 0 1.151 1.794 5.31 5.31 0 0 0 1.828 1.197c.716.288 1.525.432 2.426.432zm3.478-6.359h-7.577a4.061 4.061 0 0 1 1.185-2.525 3.857 3.857 0 0 1 1.152-.776 3.504 3.504 0 0 1 1.43-.288c.59 0 1.122.096 1.594.288.473.192.872.45 1.197.776.325.325.576.705.753 1.14.177.436.266.898.266 1.385zm5.343 6.048c.265.119.498.133.697.045a.902.902 0 0 0 .444-.4.834.834 0 0 0 .088-.564c-.037-.2-.166-.35-.388-.454a1.73 1.73 0 0 1-.753-.72c-.177-.318-.266-.816-.266-1.496V2.754a.942.942 0 0 0-.232-.642c-.155-.177-.373-.266-.654-.266-.28 0-.49.089-.631.266-.14.177-.21.391-.21.642V14.94c0 .473.058.886.177 1.24.118.355.265.662.443.92.177.259.38.473.609.643.229.17.454.306.676.41zm7.624.31c.857 0 1.64-.15 2.349-.454a5.44 5.44 0 0 0 1.816-1.24 5.614 5.614 0 0 0 1.163-1.806c.273-.68.41-1.395.41-2.149a5.79 5.79 0 0 0-.41-2.16 5.584 5.584 0 0 0-1.163-1.816 5.721 5.721 0 0 0-1.816-1.263c-.71-.318-1.492-.476-2.349-.476-.871 0-1.658.158-2.36.476a5.755 5.755 0 0 0-1.805 1.263 5.584 5.584 0 0 0-1.163 1.816 5.79 5.79 0 0 0-.41 2.16c0 .754.137 1.47.41 2.15.273.679.661 1.28 1.163 1.805a5.468 5.468 0 0 0 1.806 1.24c.701.303 1.488.455 2.36.455zm0-1.417a4.113 4.113 0 0 1-1.65-.322 3.725 3.725 0 0 1-1.274-.897 4.224 4.224 0 0 1-.83-1.34c-.2-.51-.3-1.067-.3-1.673 0-.59.1-1.148.3-1.672a4.3 4.3 0 0 1 .83-1.374c.354-.391.779-.698 1.274-.92a3.994 3.994 0 0 1 1.65-.332c.591 0 1.137.111 1.64.333.502.221.93.528 1.285.92a4.3 4.3 0 0 1 .83 1.373c.2.524.3 1.082.3 1.672 0 .606-.1 1.163-.3 1.673-.2.51-.476.956-.83 1.34a3.7 3.7 0 0 1-1.285.897 4.135 4.135 0 0 1-1.64.322zm8.577 6.535c.281 0 .488-.074.62-.221.134-.148.2-.348.2-.599v-6.624c.355.739.927 1.315 1.717 1.728.79.414 1.673.62 2.647.62.813 0 1.551-.154 2.216-.465a5.393 5.393 0 0 0 1.717-1.251 5.72 5.72 0 0 0 1.119-1.817 5.931 5.931 0 0 0 .398-2.16c0-.753-.133-1.473-.398-2.16a5.59 5.59 0 0 0-1.12-1.805 5.476 5.476 0 0 0-1.716-1.241c-.665-.31-1.403-.465-2.216-.465-.974 0-1.857.207-2.647.62-.79.414-1.362.99-1.717 1.728V8.16c0-.251-.066-.45-.2-.598-.132-.148-.339-.222-.62-.222-.28 0-.494.074-.642.222-.148.148-.222.347-.222.598v14.6c0 .25.074.45.222.598.148.147.362.221.642.221zm4.896-6.513a4.205 4.205 0 0 1-1.617-.31 3.836 3.836 0 0 1-1.296-.864 4.109 4.109 0 0 1-.864-1.34 4.62 4.62 0 0 1-.321-1.762c0-.635.107-1.215.321-1.739a4.24 4.24 0 0 1 .864-1.351 3.632 3.632 0 0 1 1.296-.864c.502-.2 1.041-.3 1.617-.3.62 0 1.182.111 1.684.333.502.221.93.52 1.285.897.355.377.624.827.809 1.352a5 5 0 0 1 .277 1.672c0 .606-.093 1.167-.277 1.684a3.903 3.903 0 0 1-.809 1.351 3.828 3.828 0 0 1-1.285.909 4.128 4.128 0 0 1-1.684.332zm13.075 1.396c1.019 0 1.853-.119 2.503-.355a6.095 6.095 0 0 0 1.684-.908c.207-.163.318-.344.332-.543a.708.708 0 0 0-.144-.51.834.834 0 0 0-.443-.288c-.184-.051-.373-.003-.565.144a8.36 8.36 0 0 1-.631.41 4.328 4.328 0 0 1-.72.333c-.266.096-.561.17-.886.221a7.269 7.269 0 0 1-1.13.078 4.475 4.475 0 0 1-1.562-.266 3.88 3.88 0 0 1-1.263-.753 3.842 3.842 0 0 1-.875-1.152 3.65 3.65 0 0 1-.376-1.44h8.108c.37 0 .631-.096.786-.288.155-.192.233-.458.233-.798 0-.783-.14-1.499-.42-2.149a4.93 4.93 0 0 0-1.153-1.661 5.175 5.175 0 0 0-1.717-1.064 5.816 5.816 0 0 0-2.093-.376c-.754 0-1.459.144-2.116.432a5.543 5.543 0 0 0-2.924 3.001 5.838 5.838 0 0 0-.432 2.26c0 .812.133 1.562.398 2.249a5.2 5.2 0 0 0 1.152 1.794 5.31 5.31 0 0 0 1.828 1.197c.716.288 1.525.432 2.426.432zm3.478-6.359h-7.577a4.061 4.061 0 0 1 1.186-2.525 3.857 3.857 0 0 1 1.152-.776 3.504 3.504 0 0 1 1.429-.288c.59 0 1.122.096 1.595.288.472.192.871.45 1.196.776.325.325.576.705.753 1.14.177.436.266.898.266 1.385zm4.28 6.137c.28 0 .49-.074.63-.222.141-.147.211-.347.211-.598v-5.605c0-.398.104-.793.31-1.185a3.58 3.58 0 0 1 .876-1.063 4.394 4.394 0 0 1 1.373-.765 5.283 5.283 0 0 1 1.783-.288h.2c.236 0 .41-.073.52-.221a.826.826 0 0 0 .167-.51.748.748 0 0 0-.167-.476c-.11-.14-.284-.21-.52-.21h-.2a6.26 6.26 0 0 0-1.329.144c-.443.096-.86.236-1.251.42a5.167 5.167 0 0 0-1.053.654c-.31.251-.546.532-.709.842v-.953a.958.958 0 0 0-.21-.631c-.14-.17-.35-.255-.632-.255-.28 0-.49.085-.63.255-.141.17-.211.38-.211.631v9.216c0 .251.07.45.21.598.14.148.35.222.631.222zm10.371.222c1.3 0 2.308-.292 3.024-.876.716-.583 1.075-1.377 1.075-2.381 0-.68-.259-1.281-.776-1.806-.517-.524-1.27-.941-2.26-1.251-1.019-.325-1.739-.635-2.16-.93-.42-.296-.63-.673-.63-1.13 0-.503.18-.89.542-1.164.362-.273.86-.41 1.495-.41.488 0 .901.056 1.24.167.34.11.666.27.976.476l.094.059c.156.085.302.106.437.063a.625.625 0 0 0 .366-.288.79.79 0 0 0 .089-.499.698.698 0 0 0-.3-.487c-.324-.251-.75-.465-1.273-.643a5.479 5.479 0 0 0-1.762-.265c-.576 0-1.089.085-1.54.254-.45.17-.826.395-1.13.676-.302.28-.53.606-.686.975-.155.37-.233.753-.233 1.152 0 .753.296 1.377.887 1.872.59.495 1.432.904 2.525 1.23.857.25 1.473.538 1.85.863.377.325.565.724.565 1.197 0 .443-.181.842-.543 1.196-.362.354-.956.532-1.783.532-.384 0-.82-.063-1.307-.189a2.826 2.826 0 0 1-1.307-.764c-.192-.192-.384-.28-.576-.266a.686.686 0 0 0-.477.233.768.768 0 0 0-.188.532c0 .214.103.432.31.653.34.37.824.665 1.451.886a5.98 5.98 0 0 0 2.005.333z" fill="#333" fill-rule="nonzero"/>
    </g>
</svg>
