<svg width="70" height="70" viewBox="0 0 70 70" xmlns="http://www.w3.org/2000/svg">
    <g fill="none" fill-rule="evenodd">
        <path d="M0 0h70v70H0z"/>
        <path d="M35 10.938c-13.891 0-25.156 11.045-25.156 24.671 0 10.9 7.208 20.149 17.203 23.411 1.258.228 1.72-.535 1.72-1.187 0-.588-.024-2.532-.035-4.593-6.999 1.492-8.475-2.911-8.475-2.911-1.145-2.852-2.794-3.61-2.794-3.61-2.282-1.531.172-1.5.172-1.5 2.527.174 3.857 2.543 3.857 2.543 2.243 3.771 5.885 2.68 7.32 2.05.226-1.594.878-2.682 1.597-3.299-5.587-.623-11.46-2.739-11.46-12.192 0-2.694.982-4.895 2.591-6.623-.261-.621-1.122-3.13.244-6.529 0 0 2.112-.663 6.92 2.53 2.006-.547 4.158-.822 6.296-.83 2.138.008 4.292.283 6.302.83 4.802-3.193 6.911-2.53 6.911-2.53 1.37 3.399.508 5.908.247 6.53 1.613 1.727 2.589 3.928 2.589 6.622 0 9.476-5.885 11.562-11.487 12.173.902.765 1.706 2.267 1.706 4.569 0 3.3-.029 5.958-.029 6.77 0 .657.453 1.426 1.728 1.184 9.99-3.266 17.19-12.51 17.19-23.408 0-13.626-11.264-24.672-25.157-24.672" fill="#2B3448"/>
    </g>
</svg>
